<svg width="131" height="32" viewBox="0 0 131 32" fill="none" xmlns="http://www.w3.org/2000/svg">
<path d="M40.1458 21.8581V10.1636H42.0441V15.1817H41.7955C41.7955 14.0327 41.9462 13.0581 42.2475 12.2581C42.5639 11.4581 43.0309 10.8472 43.6487 10.4254C44.2664 10.0036 45.0498 9.79266 45.999 9.79266H46.112C47.0461 9.79266 47.822 10.0036 48.4397 10.4254C49.0725 10.8472 49.5396 11.4581 49.8409 12.2581C50.1573 13.0581 50.3155 14.0327 50.3155 15.1817H49.6375C49.6375 14.0327 49.7957 13.0581 50.1121 12.2581C50.4285 11.4581 50.8955 10.8472 51.5132 10.4254C52.146 10.0036 52.937 9.79266 53.8862 9.79266H53.9992C54.9333 9.79266 55.7167 10.0036 56.3495 10.4254C56.9974 10.8472 57.4719 11.4581 57.7733 12.2581C58.0897 13.0581 58.2479 14.0327 58.2479 15.1817V21.8581H55.8297V14.7672C55.8297 13.8654 55.5962 13.1672 55.1291 12.6727C54.6772 12.1781 54.0444 11.9308 53.2308 11.9308C52.372 11.9308 51.6865 12.1927 51.1743 12.7163C50.662 13.2399 50.4059 13.9599 50.4059 14.8763V21.8581H47.9877V14.7672C47.9877 13.8654 47.7542 13.1672 47.2872 12.6727C46.8352 12.1781 46.1949 11.9308 45.3662 11.9308C44.5225 11.9308 43.8445 12.1927 43.3323 12.7163C42.82 13.2399 42.5639 13.9599 42.5639 14.8763V21.8581H40.1458Z" fill="black"/>
<path d="M67.3035 22.2508C66.2489 22.2508 65.3298 22.0763 64.5464 21.7272C63.778 21.3781 63.1452 20.9199 62.648 20.3527C62.1659 19.7708 61.8043 19.1236 61.5633 18.4108C61.3222 17.6836 61.2017 16.949 61.2017 16.2072V15.8145C61.2017 15.0436 61.3222 14.3018 61.5633 13.589C61.8043 12.8763 62.1659 12.229 62.648 11.6472C63.1452 11.0654 63.7705 10.6072 64.5238 10.2727C65.2771 9.92357 66.1585 9.74902 67.1679 9.74902C68.4787 9.74902 69.5634 10.0254 70.4222 10.5781C71.281 11.1308 71.9213 11.8436 72.3432 12.7163C72.7801 13.589 72.9986 14.5199 72.9986 15.509V16.4908H62.2412V14.8545H71.3036L70.6934 15.7054C70.6934 14.8908 70.5654 14.1927 70.3092 13.6108C70.0531 13.029 69.6614 12.5781 69.1341 12.2581C68.6218 11.9236 67.9664 11.7563 67.1679 11.7563C66.3393 11.7563 65.6538 11.9381 65.1114 12.3018C64.569 12.6654 64.1622 13.1672 63.891 13.8072C63.6198 14.4327 63.4842 15.1672 63.4842 16.0108C63.4842 16.8254 63.6198 17.5527 63.891 18.1927C64.1622 18.8327 64.5765 19.3345 65.134 19.6981C65.7065 20.0618 66.4297 20.2436 67.3035 20.2436C68.2075 20.2436 68.9382 20.0545 69.4956 19.6763C70.0682 19.2981 70.4147 18.8545 70.5352 18.3454H72.7952C72.6294 19.1454 72.2904 19.8436 71.7782 20.4399C71.281 21.0218 70.6482 21.4727 69.8798 21.7927C69.1265 22.0981 68.2677 22.2508 67.3035 22.2508Z" fill="black"/>
<path d="M75.9649 21.8581V10.1636H77.8632V15.0072H77.7955C77.7955 13.3054 78.1796 12.0472 78.948 11.2327C79.7164 10.4181 80.8614 10.0108 82.3831 10.0108H82.8125V12.0836H82.0215C80.8464 12.0836 79.9424 12.389 79.3096 12.9999C78.6919 13.5963 78.383 14.4618 78.383 15.5963V21.8581H75.9649Z" fill="black"/>
<path d="M90.411 22.2508C89.3564 22.2508 88.4449 22.0763 87.6765 21.7272C86.9232 21.3781 86.2904 20.9127 85.7782 20.3308C85.281 19.7345 84.9043 19.0799 84.6482 18.3672C84.4071 17.6545 84.2866 16.9345 84.2866 16.2072V15.8145C84.2866 15.0581 84.4071 14.3236 84.6482 13.6108C84.9043 12.8836 85.2885 12.2363 85.8008 11.669C86.313 11.0872 86.9458 10.6218 87.6991 10.2727C88.4675 9.92357 89.3564 9.74902 90.3658 9.74902C91.3903 9.74902 92.3094 9.93811 93.123 10.3163C93.9365 10.6945 94.5919 11.2181 95.0891 11.8872C95.5863 12.5563 95.865 13.349 95.9253 14.2654H93.5975C93.4921 13.5672 93.1606 12.9854 92.6032 12.5199C92.0608 12.0545 91.315 11.8218 90.3658 11.8218C89.5523 11.8218 88.8743 12.0036 88.3319 12.3672C87.7895 12.7308 87.3827 13.2327 87.1115 13.8727C86.8403 14.4981 86.7047 15.2108 86.7047 16.0108C86.7047 16.7818 86.8328 17.4872 87.0889 18.1272C87.3601 18.7672 87.7669 19.2763 88.3093 19.6545C88.8667 20.0181 89.5673 20.1999 90.411 20.1999C91.0589 20.1999 91.6163 20.0908 92.0834 19.8727C92.5504 19.6399 92.9271 19.3345 93.2134 18.9563C93.4996 18.5781 93.6729 18.149 93.7331 17.669H96.0383C95.9931 18.5999 95.7144 19.4072 95.2021 20.0908C94.7049 20.7745 94.042 21.3054 93.2134 21.6836C92.3847 22.0617 91.4506 22.2508 90.411 22.2508Z" fill="black"/>
<path d="M103.076 22.2072C101.645 22.2072 100.545 21.7563 99.7767 20.8545C99.0083 19.9527 98.6241 18.6436 98.6241 16.9272V10.1418H101.042V17.2981C101.042 18.1708 101.283 18.8545 101.765 19.349C102.263 19.8436 102.926 20.0908 103.754 20.0908C104.613 20.0908 105.314 19.829 105.856 19.3054C106.398 18.7672 106.67 18.0327 106.67 17.1018V10.1418H109.088V21.8581H107.189V16.8618H107.438C107.438 18.0108 107.28 18.9854 106.963 19.7854C106.647 20.5854 106.172 21.189 105.54 21.5963C104.922 22.0036 104.131 22.2072 103.167 22.2072H103.076Z" fill="black"/>
<path d="M113.152 21.8581V10.1636H115.051V15.0072H114.983C114.983 13.3054 115.367 12.0472 116.135 11.2327C116.904 10.4181 118.049 10.0108 119.571 10.0108H120V12.0836H119.209C118.034 12.0836 117.13 12.389 116.497 12.9999C115.879 13.5963 115.571 14.4618 115.571 15.5963V21.8581H113.152Z" fill="black"/>
<g clip-path="url(#clip0_10241_13244)">
<path d="M7 4V14.988L16.541 9.49398L7 4Z" fill="black"/>
<path d="M29.5993 28.0002V17.0122L20.0583 22.5062L29.5993 28.0002Z" fill="black"/>
<path d="M7 17.012V28L29.5994 14.988V4L7 17.012Z" fill="black"/>
</g>
<defs>
<clipPath id="clip0_10241_13244">
<rect width="22.5994" height="24" fill="black" transform="translate(7 4)"/>
</clipPath>
</defs>
</svg>
